<?xml version="1.0" encoding="utf-8"?>
<!-- Generator: Adobe Illustrator 17.0.2, SVG Export Plug-In . SVG Version: 6.00 Build 0)  -->
<!DOCTYPE svg PUBLIC "-//W3C//DTD SVG 1.1//EN" "http://www.w3.org/Graphics/SVG/1.1/DTD/svg11.dtd">
<svg version="1.1" id="Layer_1" xmlns="http://www.w3.org/2000/svg" xmlns:xlink="http://www.w3.org/1999/xlink" x="0px" y="0px"
	 width="26.628px" height="47.233px" viewBox="0 0 26.628 47.233" enable-background="new 0 0 26.628 47.233" xml:space="preserve">
<g id="flash_2_">
	<path fill="#FFFFFF" d="M10.664,28.12c0.2-0.5-0.2-0.7-0.7-0.7h-9.4c-0.6,0-0.7-0.6-0.4-1c0,0,19.3-25.7,19.7-26.1
		c0.3-0.5,0.6-0.4,0.5,0.2c-0.1,0.7-4.3,18.1-4.3,18.1c-0.2,0.5,0.1,0.9,0.6,0.9h9.4c0.6,0,0.7,0.4,0.4,0.8c0,0-19.3,26.1-19.7,26.6
		s-0.7,0.4-0.5-0.3C6.564,45.72,10.664,28.12,10.664,28.12z"/>
</g>
</svg>
