<?xml version="1.0" encoding="utf-8"?>
<!-- Generator: Adobe Illustrator 17.0.2, SVG Export Plug-In . SVG Version: 6.00 Build 0)  -->
<!DOCTYPE svg PUBLIC "-//W3C//DTD SVG 1.1//EN" "http://www.w3.org/Graphics/SVG/1.1/DTD/svg11.dtd">
<svg version="1.1" id="Layer_1" xmlns="http://www.w3.org/2000/svg" xmlns:xlink="http://www.w3.org/1999/xlink" x="0px" y="0px"
	 width="24.039px" height="24.354px" viewBox="0 0 24.039 24.354" enable-background="new 0 0 24.039 24.354" xml:space="preserve">
<g id="search_1_">
	<path id="search_4_" fill="#068DD8" d="M23.9,21.052l-6-6c1-1.5,1.5-3.3,1.5-5.2c0-5.3-4.3-9.7-9.7-9.7c-5.3,0-9.7,4.3-9.7,9.7
		c0,5.3,4.3,9.7,9.7,9.7c1.9,0,3.7-0.6,5.2-1.5l6,6c0.2,0.2,0.5,0.2,0.7,0l2.2-2.2C24.1,21.552,24.1,21.252,23.9,21.052z M3.1,9.752
		c0-3.6,3-6.6,6.6-6.6s6.6,3,6.6,6.6s-3,6.6-6.6,6.6S3.1,13.452,3.1,9.752z"/>
</g>
</svg>
