<?xml version="1.0" encoding="utf-8"?>
<!-- Generator: Adobe Illustrator 17.0.2, SVG Export Plug-In . SVG Version: 6.00 Build 0)  -->
<!DOCTYPE svg PUBLIC "-//W3C//DTD SVG 1.1//EN" "http://www.w3.org/Graphics/SVG/1.1/DTD/svg11.dtd">
<svg version="1.1" id="Layer_1" xmlns="http://www.w3.org/2000/svg" xmlns:xlink="http://www.w3.org/1999/xlink" x="0px" y="0px"
	 width="12.2px" height="213.25px" viewBox="0 0 12.2 213.25" enable-background="new 0 0 12.2 213.25" xml:space="preserve">
<g id="th-list">
	<path fill="#B3B4B4" d="M3.05,63c0,0.3-0.2,0.5-0.5,0.5h-2c-0.3,0-0.5-0.2-0.5-0.5v-2c0-0.3,0.2-0.5,0.5-0.5h2
		c0.3,0,0.5,0.2,0.5,0.5V63z M3.05,65c0-0.3-0.2-0.5-0.5-0.5h-2c-0.3,0-0.5,0.2-0.5,0.5v2c0,0.3,0.2,0.5,0.5,0.5h2
		c0.3,0,0.5-0.2,0.5-0.5V65z M3.05,57c0-0.3-0.2-0.5-0.5-0.5h-2c-0.3,0-0.5,0.2-0.5,0.5v2c0,0.3,0.2,0.5,0.5,0.5h2
		c0.3,0,0.5-0.2,0.5-0.5V57z M12.05,61c0-0.3-0.2-0.5-0.5-0.5h-7c-0.3,0-0.5,0.2-0.5,0.5v2c0,0.3,0.2,0.5,0.5,0.5h7
		c0.3,0,0.5-0.2,0.5-0.5V61z M12.05,65c0-0.3-0.2-0.5-0.5-0.5h-7c-0.3,0-0.5,0.2-0.5,0.5v2c0,0.3,0.2,0.5,0.5,0.5h7
		c0.3,0,0.5-0.2,0.5-0.5V65z M12.05,57c0-0.3-0.2-0.5-0.5-0.5h-7c-0.3,0-0.5,0.2-0.5,0.5v2c0,0.3,0.2,0.5,0.5,0.5h7
		c0.3,0,0.5-0.2,0.5-0.5V57z"/>
</g>
<g id="ok_1_">
	<polygon fill="#B3B4B4" points="-0.15,101.75 1.95,99.55 4.05,101.65 10.05,95.55 12.25,97.75 4.05,105.95 	"/>
</g>
<g id="inbox_3_">
	<path fill="#B3B4B4" d="M12.1,24.25l-2-7h-8l-2,7v4.8c0,0.1,0.1,0.2,0.2,0.2h11.5c0.1,0,0.2-0.1,0.2-0.2v-4.8H12.1z M3.1,19.25h6.1
		l1,5h-2l-0.5,2h-3l-0.5-2h-2L3.1,19.25z"/>
</g>
<g id="cog">
	<path fill="#DBDBDD" d="M6.1,148.283c-0.2,0-0.5,0-0.7-0.1l-0.4-1.5H4.9c-0.3-0.1-0.6-0.2-0.9-0.4H3.9l-1.3,0.8
		c-0.4-0.3-0.8-0.7-1-1l0.8-1.3v-0.1c-0.2-0.3-0.3-0.6-0.4-0.9v-0.1l-1.5-0.4c0-0.3-0.1-0.5-0.1-0.7c0-0.2,0-0.5,0.1-0.7l1.5-0.4
		v-0.1c0.1-0.3,0.2-0.6,0.4-0.9v-0.1l-0.8-1.3c0.3-0.4,0.7-0.8,1-1l1.3,0.8H4c0.3-0.2,0.6-0.3,0.9-0.4H5l0.4-1.5
		c0.3,0,0.5-0.1,0.7-0.1c0.3,0,0.5,0,0.7,0.1l0.4,1.5h0.1c0.3,0.1,0.6,0.2,0.9,0.4h0.1l1.3-0.8c0.4,0.3,0.8,0.7,1,1l-0.8,1.3v0.1
		c0.2,0.3,0.3,0.6,0.4,0.9v0.1l1.5,0.4c0,0.3,0.1,0.5,0.1,0.7c0,0.3,0,0.5-0.1,0.7l-1.5,0.4v0.1c-0.1,0.3-0.2,0.6-0.4,0.9v0.1
		l0.8,1.3c-0.3,0.4-0.7,0.8-1,1l-1.3-0.8H8.2c-0.3,0.2-0.6,0.3-0.9,0.4H7.2l-0.4,1.5C6.6,148.283,6.3,148.283,6.1,148.283z
		 M6.1,140.383c-1.2,0-2.1,1-2.1,2.1c0,1.2,1,2.1,2.1,2.1c1.2,0,2.1-1,2.1-2.1C8.2,141.383,7.3,140.383,6.1,140.383z"/>
</g>
<g id="refresh">
	<path fill="#DBDBDD" d="M6.1,191.352c-0.9,0-1.8-0.3-2.5-0.8l1.5-1.5h-4v2v2l1.5-1.5c1,0.8,2.2,1.2,3.5,1.2c3.2,0,5.8-2.6,5.8-5.8
		h-1.5C10.4,189.452,8.5,191.352,6.1,191.352z"/>
	<path fill="#DBDBDD" d="M6.1,182.752c0.9,0,1.8,0.3,2.5,0.8l-1.5,1.5h4v-4l-1.5,1.5c-1-0.8-2.2-1.2-3.5-1.2c-3.2,0-5.8,2.6-5.8,5.8
		h1.5C1.8,184.652,3.7,182.752,6.1,182.752z"/>
</g>
</svg>
