<?xml version="1.0" encoding="utf-8"?>
<!-- Generator: Adobe Illustrator 17.0.2, SVG Export Plug-In . SVG Version: 6.00 Build 0)  -->
<!DOCTYPE svg PUBLIC "-//W3C//DTD SVG 1.1//EN" "http://www.w3.org/Graphics/SVG/1.1/DTD/svg11.dtd">
<svg version="1.1" id="Layer_1" xmlns="http://www.w3.org/2000/svg" xmlns:xlink="http://www.w3.org/1999/xlink" x="0px" y="0px"
	 width="12.2px" height="128.75px" viewBox="0 0 12.2 128.75" enable-background="new 0 0 12.2 128.75" xml:space="preserve">
<g id="th-list">
	<path fill="#B3B4B4" d="M3.05,63c0,0.3-0.2,0.5-0.5,0.5h-2c-0.3,0-0.5-0.2-0.5-0.5v-2c0-0.3,0.2-0.5,0.5-0.5h2
		c0.3,0,0.5,0.2,0.5,0.5V63z M3.05,65c0-0.3-0.2-0.5-0.5-0.5h-2c-0.3,0-0.5,0.2-0.5,0.5v2c0,0.3,0.2,0.5,0.5,0.5h2
		c0.3,0,0.5-0.2,0.5-0.5V65z M3.05,57c0-0.3-0.2-0.5-0.5-0.5h-2c-0.3,0-0.5,0.2-0.5,0.5v2c0,0.3,0.2,0.5,0.5,0.5h2
		c0.3,0,0.5-0.2,0.5-0.5V57z M12.05,61c0-0.3-0.2-0.5-0.5-0.5h-7c-0.3,0-0.5,0.2-0.5,0.5v2c0,0.3,0.2,0.5,0.5,0.5h7
		c0.3,0,0.5-0.2,0.5-0.5V61z M12.05,65c0-0.3-0.2-0.5-0.5-0.5h-7c-0.3,0-0.5,0.2-0.5,0.5v2c0,0.3,0.2,0.5,0.5,0.5h7
		c0.3,0,0.5-0.2,0.5-0.5V65z M12.05,57c0-0.3-0.2-0.5-0.5-0.5h-7c-0.3,0-0.5,0.2-0.5,0.5v2c0,0.3,0.2,0.5,0.5,0.5h7
		c0.3,0,0.5-0.2,0.5-0.5V57z"/>
</g>
<g id="ok_1_">
	<polygon fill="#B3B4B4" points="-0.15,101.75 1.95,99.55 4.05,101.65 10.05,95.55 12.25,97.75 4.05,105.95 	"/>
</g>
<g id="inbox_3_">
	<path fill="#B3B4B4" d="M12.1,24.25l-2-7h-8l-2,7v4.8c0,0.1,0.1,0.2,0.2,0.2h11.5c0.1,0,0.2-0.1,0.2-0.2v-4.8H12.1z M3.1,19.25h6.1
		l1,5h-2l-0.5,2h-3l-0.5-2h-2L3.1,19.25z"/>
</g>
</svg>
