<svg width="18" height="14" xmlns="http://www.w3.org/2000/svg" fill="#bbb">
  <g transform="translate(-759 -2153)">
    <mask id="a">
      <path fill="#fff" transform="translate(759 2153)" d="M18 5l-6-5H1.8C.81 0 0 .787 0 1.75v10.509C0 13.22.81 14 1.8 14l14.4-.009c.99 0 1.8-.778 1.8-1.741V5zm-7-3l5 4h-5V2z"/>
    </mask>
    <g mask="url(#a)">
      <path d="M777 2158h2v-.937l-.72-.6L777 2158zm-6-5l1.28-1.536-.556-.464H771v2zm-10.2 14v2h.001l-.001-2zm14.4-.009v-2h-.001l.001 2zM770 2155l1.25-1.562-3.25-2.6V2155h2zm5 4v2h5.702l-4.453-3.562L775 2159zm-5 0h-2v2h2v-2zm8.28-2.536l-6-5-2.56 3.072 6 5 2.56-3.072zM771 2151h-10.2v4H771v-4zm-10.2 0c-2.041 0-3.8 1.63-3.8 3.75h4a.28.28 0 0 1-.077.198.18.18 0 0 1-.123.052v-4zm-3.8 3.75v10.509h4v-10.509h-4zm0 10.509c0 2.132 1.772 3.741 3.8 3.741v-4c.036 0 .08.016.118.052a.294.294 0 0 1 .082.207h-4zm3.801 3.741l14.4-.009-.002-4-14.4.009.002 4zm14.399-.009c2.028 0 3.8-1.608 3.8-3.741h-4c0-.095.043-.17.082-.207a.174.174 0 0 1 .118-.052v4zm3.8-3.741V2158h-4v7.25h4zm-10.25-8.688l5 4 2.5-3.124-5-4-2.5 3.124zm6.25.438h-5v4h5v-4zm-3 2v-4h-4v4h4z"/>
    </g>
  </g>
</svg>