<svg width="18" height="14" viewBox="0 0 18 14" version="1.1" xmlns="http://www.w3.org/2000/svg" xmlns:xlink="http://www.w3.org/1999/xlink">
<title>Vector</title>
<desc>Created using Figma</desc>
<g id="Canvas" transform="translate(-759 -2153)">
<g id="Vector">
<mask id="mask0_outline_ins">
<use xlink:href="#path0_fill" fill="white" transform="translate(759 2153)"/>
</mask>
<g mask="url(#mask0_outline_ins)">
<use xlink:href="#path1_stroke_2x" transform="translate(759 2153)"/>
</g>
</g>
</g>
<defs>
<path id="path0_fill" d="M 18 5L 12 0L 1.8 0C 0.81 0 0 0.7875 0 1.75L 0 12.2587C 0 13.2212 0.81 14 1.8 14L 16.2 13.9913C 17.19 13.9913 18 13.2125 18 12.25L 18 5ZM 11 2L 16 6L 11 6L 11 2Z"/>
<path id="path1_stroke_2x" d="M 18 5L 20 5L 20 4.06325L 19.2804 3.46356L 18 5ZM 12 0L 13.2804 -1.53644L 12.7241 -2L 12 -2L 12 0ZM 1.8 14L 1.8 16L 1.80122 16L 1.8 14ZM 16.2 13.9913L 16.2 11.9912L 16.1988 11.9913L 16.2 13.9913ZM 11 2L 12.2494 0.438262L 9 -2.16125L 9 2L 11 2ZM 16 6L 16 8L 21.7016 8L 17.2494 4.43826L 16 6ZM 11 6L 9 6L 9 8L 11 8L 11 6ZM 19.2804 3.46356L 13.2804 -1.53644L 10.7196 1.53644L 16.7196 6.53644L 19.2804 3.46356ZM 12 -2L 1.8 -2L 1.8 2L 12 2L 12 -2ZM 1.8 -2C -0.241085 -2 -2 -0.369806 -2 1.75L 2 1.75C 2 1.84384 1.95823 1.91371 1.92291 1.94805C 1.88838 1.98162 1.84292 2 1.8 2L 1.8 -2ZM -2 1.75L -2 12.2587L 2 12.2587L 2 1.75L -2 1.75ZM -2 12.2587C -2 14.3914 -0.227838 16 1.8 16L 1.8 12C 1.83617 12 1.8807 12.0156 1.91794 12.0515C 1.9568 12.089 2 12.1633 2 12.2587L -2 12.2587ZM 1.80122 16L 16.2012 15.9912L 16.1988 11.9913L 1.79878 12L 1.80122 16ZM 16.2 15.9913C 18.2278 15.9913 20 14.3826 20 12.25L 16 12.25C 16 12.1545 16.0432 12.0803 16.0821 12.0428C 16.1193 12.0068 16.1638 11.9913 16.2 11.9913L 16.2 15.9913ZM 20 12.25L 20 5L 16 5L 16 12.25L 20 12.25ZM 9.75061 3.56174L 14.7506 7.56174L 17.2494 4.43826L 12.2494 0.438262L 9.75061 3.56174ZM 16 4L 11 4L 11 8L 16 8L 16 4ZM 13 6L 13 2L 9 2L 9 6L 13 6Z"/>
</defs>
</svg>
