<svg width="70" height="70" viewBox="0 0 70 70" version="1.1" xmlns="http://www.w3.org/2000/svg" xmlns:xlink="http://www.w3.org/1999/xlink">
<title>Canvas</title>
<desc>Created using Figma</desc>
<g id="Canvas" transform="translate(590 120)">
<g id="Ellipse 3" filter="url(#filter0_d)">
<use xlink:href="#path0_fill" transform="translate(-587 -119)" fill="#3A7DF8"/>
</g>
<g id="logo">
<g id="flash">
<g id="Vector">
<use xlink:href="#path1_fill" transform="translate(-568 -111)" fill="#FFFFFF"/>
</g>
</g>
</g>
</g>
<defs>
<filter id="filter0_d" filterUnits="userSpaceOnUse" x="-590" y="-120" width="70" height="70" color-interpolation-filters="sRGB">
<feFlood flood-opacity="0" result="BackgroundImageFix"/>
<feColorMatrix in="SourceAlpha" type="matrix" values="0 0 0 0 0 0 0 0 0 0 0 0 0 0 0 0 0 0 255 0"/>
<feOffset dx="0" dy="2"/>
<feGaussianBlur stdDeviation="1.5"/>
<feColorMatrix type="matrix" values="0 0 0 0 0 0 0 0 0 0 0 0 0 0 0 0 0 0 0.25 0"/>
<feBlend mode="normal" in2="BackgroundImageFix" result="effect1_dropShadow"/>
<feBlend mode="normal" in="SourceGraphic" in2="effect1_dropShadow" result="shape"/>
</filter>
<path id="path0_fill" d="M 64 32C 64 49.6731 49.6731 64 32 64C 14.3269 64 0 49.6731 0 32C 0 14.3269 14.3269 0 32 0C 49.6731 0 64 14.3269 64 32Z"/>
<path id="path1_fill" d="M 10.6638 28.0788C 10.8638 27.5788 10.4638 27.3788 9.96382 27.3788L 0.563816 27.3788C -0.036184 27.3788 -0.136184 26.7788 0.163816 26.3788C 0.163816 26.3788 19.4638 0.678775 19.8638 0.278775C 20.2638 -0.121225 20.4638 -0.121225 20.3638 0.478775C 20.2638 1.07878 16.0638 18.5788 16.0638 18.5788C 16.0102 18.6765 15.9843 18.7871 15.9891 18.8985C 15.9939 19.0099 16.0292 19.1179 16.091 19.2106C 16.1529 19.3034 16.239 19.3775 16.34 19.4247C 16.4409 19.472 16.553 19.4907 16.6638 19.4788L 26.0638 19.4788C 26.6638 19.4788 26.7638 19.8788 26.4638 20.2788C 26.4638 20.2788 7.16382 46.3788 6.76382 46.8788C 6.36382 47.3788 6.06382 47.2788 6.26382 46.5788C 6.56382 45.6788 10.6638 28.0788 10.6638 28.0788Z"/>
</defs>
</svg>
