<svg width="70" height="70" viewBox="0 0 70 70" fill="none" xmlns="http://www.w3.org/2000/svg">
<g filter="url(#filter0_d)">
<circle cx="35" cy="33" r="32" fill="white"/>
</g>
<path d="M32.6638 37.0788C32.8638 36.5788 32.4638 36.3788 31.9638 36.3788H22.5638C21.9638 36.3788 21.8638 35.7788 22.1638 35.3788C22.1638 35.3788 41.4638 9.67878 41.8638 9.27878C42.2638 8.87878 42.4638 8.87878 42.3638 9.47878C42.2638 10.0788 38.0638 27.5788 38.0638 27.5788C38.0102 27.6765 37.9843 27.7871 37.9891 27.8985C37.9939 28.0099 38.0292 28.1179 38.091 28.2106C38.1529 28.3034 38.239 28.3775 38.34 28.4247C38.4409 28.472 38.553 28.4907 38.6638 28.4788H48.0638C48.6638 28.4788 48.7638 28.8788 48.4638 29.2788C48.4638 29.2788 29.1638 55.3788 28.7638 55.8788C28.3638 56.3788 28.0638 56.2788 28.2638 55.5788C28.5638 54.6788 32.6638 37.0788 32.6638 37.0788Z" fill="#3A7DF8"/>
<defs>
<filter id="filter0_d" x="0" y="0" width="70" height="70" filterUnits="userSpaceOnUse" color-interpolation-filters="sRGB">
<feFlood flood-opacity="0" result="BackgroundImageFix"/>
<feColorMatrix in="SourceAlpha" type="matrix" values="0 0 0 0 0 0 0 0 0 0 0 0 0 0 0 0 0 0 127 0"/>
<feOffset dy="2"/>
<feGaussianBlur stdDeviation="1.5"/>
<feColorMatrix type="matrix" values="0 0 0 0 0 0 0 0 0 0 0 0 0 0 0 0 0 0 0.25 0"/>
<feBlend mode="normal" in2="BackgroundImageFix" result="effect1_dropShadow"/>
<feBlend mode="normal" in="SourceGraphic" in2="effect1_dropShadow" result="shape"/>
</filter>
</defs>
</svg>
