<?xml version="1.0" encoding="UTF-8"?>
<svg version="1.1" viewBox="0 0 148 48" 
  xmlns="http://www.w3.org/2000/svg">
  <g fill="none" fill-rule="evenodd">
    <g transform="translate(-1)">
      <path d="m45.216 24.436v12.564h-7.02v-25.56h5.472l10.26 12.996v-12.996h7.02v25.56h-5.58l-10.152-12.564zm20.124 12.564v-25.56h7.02v25.56h-7.02zm31.32-19.44h-7.344v19.44h-7.02v-19.44h-7.38v-6.12h21.744v6.12zm2.556 19.44v-25.56h11.736c1.248 0 2.4 0.258 3.456 0.774s1.962 1.188 2.718 2.016 1.35 1.776 1.782 2.844 0.648 2.142 0.648 3.222c0 1.488-0.324 2.874-0.972 4.158s-1.548 2.334-2.7 3.15l5.4 9.396h-7.92l-4.5-7.848h-2.628v7.848h-7.02zm7.02-13.968h4.428c0.432 0 0.834-0.24 1.206-0.72s0.558-1.152 0.558-2.016c0-0.888-0.216-1.566-0.648-2.034s-0.864-0.702-1.296-0.702h-4.248v5.472zm28.8 14.184c-1.944 0-3.708-0.372-5.292-1.116s-2.94-1.722-4.068-2.934-2.004-2.598-2.628-4.158-0.936-3.168-0.936-4.824c0-1.68 0.324-3.3 0.972-4.86s1.554-2.934 2.718-4.122 2.544-2.136 4.14-2.844 3.342-1.062 5.238-1.062c1.944 0 3.708 0.372 5.292 1.116s2.94 1.728 4.068 2.952 1.998 2.616 2.61 4.176 0.918 3.156 0.918 4.788c0 1.68-0.324 3.294-0.972 4.842s-1.548 2.916-2.7 4.104-2.526 2.142-4.122 2.862-3.342 1.08-5.238 1.08zm-5.796-12.96c0 0.864 0.12 1.698 0.36 2.502s0.6 1.518 1.08 2.142 1.086 1.128 1.818 1.512 1.602 0.576 2.61 0.576 1.884-0.198 2.628-0.594 1.35-0.912 1.818-1.548 0.816-1.362 1.044-2.178 0.342-1.644 0.342-2.484c0-0.864-0.12-1.698-0.36-2.502s-0.606-1.512-1.098-2.124-1.104-1.104-1.836-1.476-1.59-0.558-2.574-0.558c-1.008 0-1.878 0.192-2.61 0.576s-1.338 0.894-1.818 1.53-0.834 1.356-1.062 2.16-0.342 1.626-0.342 2.466z" fill="#000"/>
      <g fill="#3A7DF8" fill-rule="nonzero">
        <path d="m11.66 28.12c0.2-0.5-0.2-0.7-0.7-0.7h-9.4c-0.6 0-0.7-0.6-0.4-1 0 0 19.3-25.7 19.7-26.1s0.6-0.4 0.5 0.2-4.3 18.1-4.3 18.1c-0.10936 0.19924-0.098872 0.44276 0.0272 0.63187s0.34682 0.29244 0.5728 0.26813h9.4c0.6 0 0.7 0.4 0.4 0.8 0 0-19.3 26.1-19.7 26.6s-0.7 0.4-0.5-0.3c0.3-0.9 4.4-18.5 4.4-18.5z"/>
      </g>
    </g>
  </g>
</svg>
