<?xml version="1.0" encoding="UTF-8" standalone="no"?>
<!-- Created with Inkscape (http://www.inkscape.org/) -->

<svg
   xmlns:dc="http://purl.org/dc/elements/1.1/"
   xmlns:cc="http://creativecommons.org/ns#"
   xmlns:rdf="http://www.w3.org/1999/02/22-rdf-syntax-ns#"
   xmlns:svg="http://www.w3.org/2000/svg"
   xmlns="http://www.w3.org/2000/svg"
   version="1.1"
   width="23.000002"
   height="18.768112"
   id="svg2">
  <defs
     id="defs4" />
  <metadata
     id="metadata7">
    <rdf:RDF>
      <cc:Work
         rdf:about="">
        <dc:format>image/svg+xml</dc:format>
        <dc:type
           rdf:resource="http://purl.org/dc/dcmitype/StillImage" />
        <dc:title></dc:title>
      </cc:Work>
    </rdf:RDF>
  </metadata>
  <g
     transform="matrix(1.0421445,0,0,1.0421445,-10.421445,-1067.5239)"
     id="layer1"
     style="fill:#ffffff">
    <g
       transform="translate(-50,238.36218)"
       id="check"
       style="fill:#ffffff">
      <path
         d="M 76,798.307 V 801 c 0,0.55 -0.45,1 -1,1 H 63 c -0.55,0 -1,-0.45 -1,-1 v -12 c 0,-0.55 0.45,-1 1,-1 h 10.651 l 1.737,-1.737 C 74.955,786.101 74.49,786 74,786 H 64 c -2.205,0 -4,1.794 -4,4 v 10 c 0,2.206 1.795,4 4,4 h 10 c 2.205,0 4,-1.794 4,-4 v -3.693 l -2,2 z"
         id="path1283"
         style="fill:#ffffff" />
      <path
         d="m 81.92,788.454 c 0.199,0.196 0.2,0.52 0.002,0.718 l -11.004,11.003 c -0.197,0.198 -0.521,0.198 -0.719,0 l -2.334,-2.332 c -0.197,-0.199 -0.521,-0.523 -0.719,-0.72 l -2.844,-2.844 c -0.197,-0.197 -0.197,-0.521 0,-0.72 l 2.334,-2.333 c 0.197,-0.198 0.521,-0.198 0.719,0 l 2.844,2.843 c 0.197,0.197 0.521,0.197 0.72,0 l 7.93,-7.929 c 0.198,-0.198 0.522,-0.199 0.722,-0.002 l 2.349,2.316 z"
         id="path1285"
         style="fill:#ffffff" />
    </g>
  </g>
</svg>
