<?xml version="1.0" encoding="UTF-8" standalone="no"?>
<!-- Created with Inkscape (http://www.inkscape.org/) -->

<svg
   xmlns:dc="http://purl.org/dc/elements/1.1/"
   xmlns:cc="http://creativecommons.org/ns#"
   xmlns:rdf="http://www.w3.org/1999/02/22-rdf-syntax-ns#"
   xmlns:svg="http://www.w3.org/2000/svg"
   xmlns="http://www.w3.org/2000/svg"
   xmlns:sodipodi="http://sodipodi.sourceforge.net/DTD/sodipodi-0.dtd"
   xmlns:inkscape="http://www.inkscape.org/namespaces/inkscape"
   width="24.5"
   height="24.5"
   id="svg6490"
   version="1.1"
   inkscape:version="0.48.3.1 r9886"
   sodipodi:docname="New document 2">
  <defs
     id="defs6492" />
  <sodipodi:namedview
     id="base"
     pagecolor="#ffffff"
     bordercolor="#666666"
     borderopacity="1.0"
     inkscape:pageopacity="0.0"
     inkscape:pageshadow="2"
     inkscape:zoom="1.4"
     inkscape:cx="19.633268"
     inkscape:cy="-24.992627"
     inkscape:document-units="px"
     inkscape:current-layer="layer1"
     showgrid="false"
     fit-margin-top="0"
     fit-margin-left="0"
     fit-margin-right="0"
     fit-margin-bottom="0"
     inkscape:window-width="688"
     inkscape:window-height="555"
     inkscape:window-x="407"
     inkscape:window-y="219"
     inkscape:window-maximized="0" />
  <metadata
     id="metadata6495">
    <rdf:RDF>
      <cc:Work
         rdf:about="">
        <dc:format>image/svg+xml</dc:format>
        <dc:type
           rdf:resource="http://purl.org/dc/dcmitype/StillImage" />
        <dc:title></dc:title>
      </cc:Work>
    </rdf:RDF>
  </metadata>
  <g
     inkscape:label="Layer 1"
     inkscape:groupmode="layer"
     id="layer1"
     transform="translate(-304.89286,-562.96933)">
    <g
       transform="translate(245.14286,-456.78067)"
       id="download_1_"
       style="fill:#ffffff">
      <path
         inkscape:connector-curvature="0"
         id="path1016"
         d="m 84.25,1032 c 0,6.755 -5.495,12.25 -12.25,12.25 -6.755,0 -12.25,-5.495 -12.25,-12.25 0,-6.755 5.495,-12.25 12.25,-12.25 6.755,0 12.25,5.495 12.25,12.25 z m -3.25,0 c 0,-4.963 -4.037,-9 -9,-9 -4.963,0 -9,4.037 -9,9 0,4.963 4.037,9 9,9 4.963,0 9,-4.037 9,-9 z m -3.177,-0.586 -5.647,7.428 c -0.118,0.152 -0.311,0.117 -0.428,-0.035 L 66.1,1031.433 C 65.983,1031.281 66.043,1031 66.236,1031 H 69 v -4 -0.141 -0.328 c 0,-0.275 0.225,-0.5 0.5,-0.5 h 5 c 0.275,0 0.5,0.225 0.5,0.5 v 0.328 0.141 4 h 2.688 c 0.191,0 0.253,0.263 0.135,0.414 z"
         style="fill:#ffffff" />
    </g>
  </g>
</svg>
