<?xml version="1.0" encoding="UTF-8" standalone="no"?>
<!-- Created with Inkscape (http://www.inkscape.org/) -->

<svg
   xmlns:dc="http://purl.org/dc/elements/1.1/"
   xmlns:cc="http://creativecommons.org/ns#"
   xmlns:rdf="http://www.w3.org/1999/02/22-rdf-syntax-ns#"
   xmlns:svg="http://www.w3.org/2000/svg"
   xmlns="http://www.w3.org/2000/svg"
   xmlns:sodipodi="http://sodipodi.sourceforge.net/DTD/sodipodi-0.dtd"
   xmlns:inkscape="http://www.inkscape.org/namespaces/inkscape"
   width="13.000004"
   height="85.999634"
   id="svg6550"
   version="1.1"
   inkscape:version="0.48.3.1 r9886"
   sodipodi:docname="listedit.svg">
  <defs
     id="defs6552" />
  <sodipodi:namedview
     id="base"
     pagecolor="#ffffff"
     bordercolor="#666666"
     borderopacity="1.0"
     inkscape:pageopacity="0.0"
     inkscape:pageshadow="2"
     inkscape:zoom="5.6"
     inkscape:cx="37.965634"
     inkscape:cy="41.602643"
     inkscape:document-units="px"
     inkscape:current-layer="layer1"
     showgrid="false"
     fit-margin-top="0"
     fit-margin-left="0"
     fit-margin-right="0"
     fit-margin-bottom="0"
     inkscape:window-width="737"
     inkscape:window-height="674"
     inkscape:window-x="530"
     inkscape:window-y="203"
     inkscape:window-maximized="0" />
  <metadata
     id="metadata6555">
    <rdf:RDF>
      <cc:Work
         rdf:about="">
        <dc:format>image/svg+xml</dc:format>
        <dc:type
           rdf:resource="http://purl.org/dc/dcmitype/StillImage" />
        <dc:title></dc:title>
      </cc:Work>
    </rdf:RDF>
  </metadata>
  <g
     inkscape:label="Layer 1"
     inkscape:groupmode="layer"
     id="layer1"
     transform="translate(-2.0932151e-6,-966.36256)">
    <g
       transform="matrix(0.55719849,0,0,0.55719849,-193.80742,471.98731)"
       id="ok_x5F_2">
      <path
         inkscape:connector-curvature="0"
         id="path998"
         d="m 371.008,1026.27 c 0.196,0.193 0.197,0.51 0.003,0.705 l -14.475,14.474 c -0.194,0.194 -0.513,0.194 -0.707,0 l -3.245,-3.246 c -0.195,-0.194 -0.514,-0.513 -0.707,-0.707 l -3.906,-3.907 c -0.195,-0.193 -0.195,-0.512 0,-0.707 l 3.246,-3.246 c 0.194,-0.194 0.513,-0.194 0.707,0 l 3.906,3.906 c 0.195,0.194 0.514,0.194 0.707,0 l 10.493,-10.492 c 0.194,-0.194 0.514,-0.195 0.71,0 l 3.268,3.222 z" />
    </g>
    <g
       transform="matrix(0.55926607,0,0,0.55926607,-168.89835,374.9541)"
       id="pen_1_">
      <polygon
         id="polygon910"
         points="302,1188 308.438,1184.938 305.156,1181.656 " />
      <path
         inkscape:connector-curvature="0"
         id="path912"
         d="m 324.953,1166.412 -1.33,-1.331 c -0.389,-0.389 -1.025,-0.389 -1.414,0 l -1.369,1.369 c -0.391,-0.348 -0.991,-0.344 -1.366,0.031 l -0.519,0.519 h -1.748 -1.414 l -5.793,5.793 v 1.363 l 0.025,0.025 6.182,-6.182 h 1.748 l -0.446,0.446 -8.497,8.497 -3.379,3.379 4.08,4.081 3.378,-3.378 c 0,-10e-4 10e-4,-10e-4 10e-4,-10e-4 l 10.462,-10.463 c 0.375,-0.374 0.379,-0.976 0.031,-1.366 l 1.368,-1.369 c 0.389,-0.387 0.389,-1.024 0,-1.413 z" />
    </g>
    <g
       transform="matrix(0.61076332,0,0,0.61076332,-242.69365,386.55758)"
       id="remove_x5F_2">
      <path
         inkscape:connector-curvature="0"
         id="path995"
         d="m 411.195,1031.996 5.648,-5.648 c 0.221,-0.222 0.221,-0.585 0,-0.806 l -2.383,-2.383 c -0.221,-0.221 -0.583,-0.221 -0.805,0 l -5.649,5.649 -5.653,-5.652 c -0.222,-0.221 -0.584,-0.221 -0.805,0 l -2.383,2.384 c -0.222,0.22 -0.222,0.582 0,0.806 l 5.652,5.651 -5.65,5.65 c -0.22,0.22 -0.22,0.583 0,0.805 l 2.383,2.383 c 0.222,0.22 0.586,0.22 0.806,0 l 5.649,-5.649 5.646,5.646 c 0.221,0.221 0.585,0.221 0.806,0 l 2.384,-2.384 c 0.22,-0.22 0.22,-0.583 0,-0.806 l -5.646,-5.646 z" />
    </g>
    <g
       transform="matrix(0.55719834,0,0,0.55719849,-193.80737,427.98731)"
       id="ok_x5F_2-2"
       style="fill:#ffffff">
      <path
         inkscape:connector-curvature="0"
         id="path998-4"
         d="m 371.008,1026.27 c 0.196,0.193 0.197,0.51 0.003,0.705 l -14.475,14.474 c -0.194,0.194 -0.513,0.194 -0.707,0 l -3.245,-3.246 c -0.195,-0.194 -0.514,-0.513 -0.707,-0.707 l -3.906,-3.907 c -0.195,-0.193 -0.195,-0.512 0,-0.707 l 3.246,-3.246 c 0.194,-0.194 0.513,-0.194 0.707,0 l 3.906,3.906 c 0.195,0.194 0.514,0.194 0.707,0 l 10.493,-10.492 c 0.194,-0.194 0.514,-0.195 0.71,0 l 3.268,3.222 z"
         style="fill:#ffffff" />
    </g>
    <g
       transform="matrix(0.55926607,0,0,0.56008531,-168.89835,329.98085)"
       id="pen_1_-9"
       style="fill:#ffffff">
      <polygon
         id="polygon910-4"
         points="302,1188 308.438,1184.938 305.156,1181.656 "
         style="fill:#ffffff" />
      <path
         inkscape:connector-curvature="0"
         id="path912-6"
         d="m 324.953,1166.412 -1.33,-1.331 c -0.389,-0.389 -1.025,-0.389 -1.414,0 l -1.369,1.369 c -0.391,-0.348 -0.991,-0.344 -1.366,0.031 l -0.519,0.519 h -1.748 -1.414 l -5.793,5.793 v 1.363 l 0.025,0.025 6.182,-6.182 h 1.748 l -0.446,0.446 -8.497,8.497 -3.379,3.379 4.08,4.081 3.378,-3.378 c 0,-10e-4 10e-4,-10e-4 10e-4,-10e-4 l 10.462,-10.463 c 0.375,-0.374 0.379,-0.976 0.031,-1.366 l 1.368,-1.369 c 0.389,-0.387 0.389,-1.024 0,-1.413 z"
         style="fill:#ffffff" />
    </g>
    <g
       transform="matrix(0.61076332,0,0,0.61078027,-242.69365,342.53993)"
       id="remove_x5F_2-8"
       style="fill:#ffffff">
      <path
         inkscape:connector-curvature="0"
         id="path995-0"
         d="m 411.195,1031.996 5.648,-5.648 c 0.221,-0.222 0.221,-0.585 0,-0.806 l -2.383,-2.383 c -0.221,-0.221 -0.583,-0.221 -0.805,0 l -5.649,5.649 -5.653,-5.652 c -0.222,-0.221 -0.584,-0.221 -0.805,0 l -2.383,2.384 c -0.222,0.22 -0.222,0.582 0,0.806 l 5.652,5.651 -5.65,5.65 c -0.22,0.22 -0.22,0.583 0,0.805 l 2.383,2.383 c 0.222,0.22 0.586,0.22 0.806,0 l 5.649,-5.649 5.646,5.646 c 0.221,0.221 0.585,0.221 0.806,0 l 2.384,-2.384 c 0.22,-0.22 0.22,-0.583 0,-0.806 l -5.646,-5.646 z"
         style="fill:#ffffff" />
    </g>
  </g>
</svg>
