<?xml version="1.0" encoding="UTF-8" standalone="no"?>
<!-- Created with Inkscape (http://www.inkscape.org/) -->

<svg
   xmlns:dc="http://purl.org/dc/elements/1.1/"
   xmlns:cc="http://creativecommons.org/ns#"
   xmlns:rdf="http://www.w3.org/1999/02/22-rdf-syntax-ns#"
   xmlns:svg="http://www.w3.org/2000/svg"
   xmlns="http://www.w3.org/2000/svg"
   version="1.1"
   width="16"
   height="12"
   id="svg7359">
  <defs
     id="defs7361" />
  <metadata
     id="metadata7364">
    <rdf:RDF>
      <cc:Work
         rdf:about="">
        <dc:format>image/svg+xml</dc:format>
        <dc:type
           rdf:resource="http://purl.org/dc/dcmitype/StillImage" />
        <dc:title></dc:title>
      </cc:Work>
    </rdf:RDF>
  </metadata>
  <g
     transform="translate(-363.33449,-529.70736)"
     id="layer1">
    <g
       transform="matrix(0.68578275,0,0,0.64204168,124.80228,-127.03972)"
       id="ok_x5F_2"
       style="fill:#808080">
      <g
         id="ok_x5F_2_1_"
         style="fill:#808080">
        <path
           d="m 371.008,1026.27 c 0.196,0.193 0.197,0.51 0.003,0.705 l -14.475,14.474 c -0.194,0.194 -0.513,0.194 -0.707,0 l -3.245,-3.246 c -0.195,-0.194 -0.514,-0.513 -0.707,-0.707 l -3.906,-3.907 c -0.195,-0.193 -0.195,-0.512 0,-0.707 l 3.246,-3.246 c 0.194,-0.194 0.513,-0.194 0.707,0 l 3.906,3.906 c 0.195,0.194 0.514,0.194 0.707,0 l 10.493,-10.492 c 0.194,-0.194 0.514,-0.195 0.71,0 l 3.268,3.222 z"
           id="path1164"
           style="fill:#808080" />
      </g>
    </g>
  </g>
</svg>
