<?xml version="1.0" encoding="UTF-8" standalone="no"?>
<!-- Created with Inkscape (http://www.inkscape.org/) -->

<svg
   xmlns:dc="http://purl.org/dc/elements/1.1/"
   xmlns:cc="http://creativecommons.org/ns#"
   xmlns:rdf="http://www.w3.org/1999/02/22-rdf-syntax-ns#"
   xmlns:svg="http://www.w3.org/2000/svg"
   xmlns="http://www.w3.org/2000/svg"
   xmlns:sodipodi="http://sodipodi.sourceforge.net/DTD/sodipodi-0.dtd"
   xmlns:inkscape="http://www.inkscape.org/namespaces/inkscape"
   width="11.333333"
   height="16"
   id="svg7359"
   version="1.1"
   inkscape:version="0.48.3.1 r9886"
   sodipodi:docname="notes.svg">
  <defs
     id="defs7361" />
  <sodipodi:namedview
     id="base"
     pagecolor="#ffffff"
     bordercolor="#666666"
     borderopacity="1.0"
     inkscape:pageopacity="0.0"
     inkscape:pageshadow="2"
     inkscape:zoom="3.959798"
     inkscape:cx="9.7491178"
     inkscape:cy="5.6475338"
     inkscape:document-units="px"
     inkscape:current-layer="layer1"
     showgrid="false"
     fit-margin-top="0"
     fit-margin-left="0"
     fit-margin-right="0"
     fit-margin-bottom="0"
     inkscape:window-width="966"
     inkscape:window-height="695"
     inkscape:window-x="446"
     inkscape:window-y="205"
     inkscape:window-maximized="0" />
  <metadata
     id="metadata7364">
    <rdf:RDF>
      <cc:Work
         rdf:about="">
        <dc:format>image/svg+xml</dc:format>
        <dc:type
           rdf:resource="http://purl.org/dc/dcmitype/StillImage" />
        <dc:title />
      </cc:Work>
    </rdf:RDF>
  </metadata>
  <g
     inkscape:label="Layer 1"
     inkscape:groupmode="layer"
     id="layer1"
     transform="translate(-366.5,-528.36218)">
    <g
       transform="matrix(0.66666667,0,0,0.66666667,131.83333,392.36218)"
       id="file_1_"
       style="fill:#b3b3b3">
      <g
         id="file"
         style="fill:#b3b3b3">
        <path
           inkscape:connector-curvature="0"
           id="path2425"
           d="m 368.5,211 h 0.5 v 16.5 c 0,0.275 -0.225,0.5 -0.5,0.5 h -16 c -0.275,0 -0.5,-0.225 -0.5,-0.5 v -23 c 0,-0.275 0.225,-0.5 0.5,-0.5 h 9.5 v 0.5 5 1 c 0,0.275 0.225,0.5 0.5,0.5 h 1 5 z m 0.146,-1.354 -5.293,-5.293 L 363,204 v 0.5 2.5 2.5 c 0,0.275 0.225,0.5 0.5,0.5 h 2.5 2.5 0.5 l -0.354,-0.354 z"
           style="fill:#b3b3b3" />
      </g>
    </g>
  </g>
</svg>
