<?xml version="1.0" encoding="UTF-8" standalone="no"?>
<!-- Created with Inkscape (http://www.inkscape.org/) -->

<svg
   xmlns:dc="http://purl.org/dc/elements/1.1/"
   xmlns:cc="http://creativecommons.org/ns#"
   xmlns:rdf="http://www.w3.org/1999/02/22-rdf-syntax-ns#"
   xmlns:svg="http://www.w3.org/2000/svg"
   xmlns="http://www.w3.org/2000/svg"
   version="1.1"
   width="25.230057"
   height="25.159445"
   id="svg7372">
  <defs
     id="defs7374" />
  <metadata
     id="metadata7377">
    <rdf:RDF>
      <cc:Work
         rdf:about="">
        <dc:format>image/svg+xml</dc:format>
        <dc:type
           rdf:resource="http://purl.org/dc/dcmitype/StillImage" />
        <dc:title></dc:title>
      </cc:Work>
    </rdf:RDF>
  </metadata>
  <g
     transform="translate(-613.09926,-354.06818)"
     id="layer1">
    <g
       transform="translate(410.10026,199.0142)"
       id="cogwheels_1_"
       style="fill:#ffffff">
      <g
         id="cogwheels"
         style="fill:#ffffff">
        <path
           d="m 219.355,165.161 c -0.078,0.529 -0.215,1.038 -0.398,1.523 l 1.189,1.138 c -0.215,0.463 -0.469,0.9 -0.753,1.314 l -1.585,-0.442 c -0.328,0.411 -0.701,0.788 -1.107,1.118 l 0.461,1.579 c -0.41,0.293 -0.849,0.548 -1.308,0.769 l -1.151,-1.178 c -0.48,0.19 -0.99,0.331 -1.518,0.417 l -0.391,1.595 c -0.25,0.021 -0.501,0.038 -0.758,0.04 -0.256,-0.001 -0.508,-0.013 -0.762,-0.034 l -0.404,-1.59 c -0.527,-0.077 -1.038,-0.217 -1.521,-0.399 l -1.14,1.19 c -0.461,-0.215 -0.899,-0.468 -1.315,-0.753 l 0.443,-1.586 c -0.411,-0.327 -0.786,-0.698 -1.119,-1.106 l -1.578,0.461 c -0.291,-0.411 -0.547,-0.848 -0.768,-1.309 l 1.179,-1.15 c -0.188,-0.481 -0.331,-0.989 -0.418,-1.518 l -1.595,-0.391 c -0.021,-0.25 -0.036,-0.502 -0.039,-0.758 0,-0.256 0.012,-0.508 0.03,-0.76 l 1.593,-0.406 c 0.081,-0.527 0.215,-1.038 0.4,-1.521 l -1.188,-1.139 c 0.212,-0.462 0.466,-0.9 0.751,-1.316 l 1.586,0.443 c 0.326,-0.411 0.697,-0.787 1.105,-1.119 l -0.461,-1.581 c 0.412,-0.289 0.849,-0.547 1.307,-0.764 l 1.15,1.176 c 0.484,-0.19 0.996,-0.331 1.521,-0.417 l 0.39,-1.595 c 0.25,-0.023 0.502,-0.037 0.758,-0.037 0.255,-0.005 0.508,0.009 0.758,0.028 l 0.408,1.592 c 0.527,0.08 1.037,0.215 1.522,0.399 l 1.137,-1.189 c 0.463,0.214 0.9,0.468 1.315,0.753 l -0.441,1.584 c 0.41,0.33 0.785,0.701 1.117,1.107 l 1.579,-0.46 c 0.292,0.411 0.548,0.848 0.768,1.308 l -1.176,1.15 c 0.188,0.486 0.331,0.995 0.417,1.52 l 1.594,0.389 c 0.021,0.25 0.037,0.504 0.04,0.761 -0.002,0.255 -0.014,0.506 -0.031,0.758 l -1.593,0.406 z m -3.732,-1.138 c -0.012,-2.005 -1.646,-3.622 -3.652,-3.612 -2.007,0.013 -3.625,1.646 -3.613,3.652 0.011,2.006 1.646,3.622 3.65,3.613 2.007,-0.01 3.623,-1.646 3.615,-3.653 z m 12.606,10.563 c -0.004,0.236 -0.021,0.465 -0.053,0.694 l -1.162,0.397 c -0.119,0.461 -0.305,0.891 -0.546,1.28 l 0.516,1.116 c -0.29,0.364 -0.622,0.69 -0.993,0.973 l -1.105,-0.54 c -0.397,0.234 -0.83,0.409 -1.289,0.518 l -0.424,1.153 c -0.227,0.026 -0.458,0.039 -0.693,0.036 -0.234,-0.002 -0.466,-0.02 -0.693,-0.05 L 221.388,179 c -0.46,-0.117 -0.887,-0.301 -1.278,-0.544 l -1.119,0.517 c -0.36,-0.29 -0.688,-0.623 -0.968,-0.993 l 0.537,-1.104 c -0.235,-0.396 -0.411,-0.828 -0.52,-1.292 l -1.155,-0.422 c -0.024,-0.23 -0.039,-0.46 -0.036,-0.696 0.003,-0.233 0.021,-0.468 0.052,-0.693 l 1.163,-0.401 c 0.118,-0.46 0.304,-0.889 0.547,-1.278 l -0.514,-1.12 c 0.288,-0.361 0.622,-0.686 0.988,-0.97 l 1.108,0.539 c 0.396,-0.23 0.827,-0.406 1.289,-0.517 l 0.422,-1.153 c 0.229,-0.024 0.461,-0.039 0.694,-0.037 0.235,0.003 0.467,0.022 0.692,0.051 l 0.4,1.163 c 0.456,0.119 0.885,0.305 1.277,0.543 l 1.117,-0.515 c 0.364,0.292 0.689,0.623 0.972,0.991 l -0.539,1.107 c 0.232,0.395 0.409,0.828 0.52,1.29 l 1.153,0.427 c 0.028,0.224 0.04,0.459 0.039,0.693 z m -3.598,-0.038 c 0.012,-1.156 -0.914,-2.103 -2.07,-2.115 -1.156,-0.011 -2.102,0.914 -2.113,2.07 -0.013,1.155 0.914,2.103 2.069,2.113 1.155,0.013 2.101,-0.913 2.114,-2.068 z"
           id="path2547"
           style="fill:#ffffff" />
      </g>
    </g>
  </g>
</svg>
